<svg xmlns="http://www.w3.org/2000/svg" version="1.1" xmlns:xlink="http://www.w3.org/1999/xlink" width="1000" height="1000"><style>
    #light-icon {
      display: inline;
    }
    #dark-icon {
      display: none;
    }

    @media (prefers-color-scheme: dark) {
      #light-icon {
        display: none;
      }
      #dark-icon {
        display: inline;
      }
    }
  </style><g id="light-icon"><svg xmlns="http://www.w3.org/2000/svg" version="1.1" xmlns:xlink="http://www.w3.org/1999/xlink" width="1000" height="1000"><g clip-path="url(#SvgjsClipPath1442)"><rect width="1000" height="1000" fill="#ffffff"></rect><g transform="matrix(0.9765625,0,0,0.9765625,0,0)"><svg xmlns="http://www.w3.org/2000/svg" version="1.1" xmlns:xlink="http://www.w3.org/1999/xlink" width="1024" height="1024"><svg width="1024" height="1024" viewBox="0 0 1024 1024" fill="none" xmlns="http://www.w3.org/2000/svg">
<path fill-rule="evenodd" clip-rule="evenodd" d="M148 503V909H497H846V503V97H497H148V503Z" fill="#00FFB3"></path>
<path fill-rule="evenodd" clip-rule="evenodd" d="M0 512V1024H512H1024V512V0H512H0V512ZM603 158.946C672.207 163.496 720.253 172.048 744.171 184.074C769.011 196.562 787.085 216.283 791.845 236.091C793.664 243.659 799.69 317.546 804.968 397C810.71 483.447 810.498 475.539 810.499 603.5L810.5 723.5L808.386 728.07C806.085 733.044 800.248 739.265 795.5 741.804C793.467 742.891 789.035 743.539 781.75 743.815L771 744.221V767.364C771 787.336 770.732 791.443 769.044 797.347C764.986 811.535 758.607 819.951 748.22 824.819C742.621 827.443 742.019 827.507 719.739 827.818C701.554 828.072 695.92 827.828 691.719 826.607C680.734 823.413 672.116 815.042 667.698 803.275C665.734 798.045 665.481 794.998 665.015 771L664.5 744.5H512.175H359.85L359.925 766C359.979 781.464 359.584 789.441 358.518 794.412C355.359 809.15 347.854 819.786 337 824.906C331.529 827.486 331.367 827.5 306 827.5C280.624 827.5 280.473 827.487 275 824.903C264.779 820.076 257.807 811.035 254.492 798.307C253.368 793.991 253 786.594 253 768.29V744L243.75 743.99C236.109 743.982 233.63 743.569 229.5 741.613C223.451 738.748 218.81 734.041 216.079 728C214.069 723.556 214.044 722.01 214.022 604.379C213.999 479.512 213.936 482.057 219.025 401C222.274 349.266 229.599 249.11 230.618 242.5C230.957 240.3 232.307 235.634 233.617 232.131C242.586 208.158 267.249 187.049 298.048 176.984C323.922 168.529 385.438 160.659 446 158.056C472.457 156.918 581.57 157.537 603 158.946ZM387.893 228.497C384.051 230.585 381.667 234.852 381.667 239.64C381.667 245.053 384.107 248.692 389.328 251.062C393.347 252.886 397.874 252.957 512.434 252.978C631.278 253 631.372 252.998 635.712 250.898C641.238 248.222 643.403 244.269 642.71 238.119C642.305 234.527 641.442 232.877 638.613 230.284L635.029 227L512.765 227.04C409.223 227.074 390.101 227.297 387.893 228.497ZM286.5 296.393C276.898 299.444 270.122 305.681 268.142 313.292C267.539 315.606 266.349 327.85 265.497 340.5C264.644 353.15 263.051 375.875 261.957 391C259.349 427.056 257.014 469.238 257.006 480.434C256.997 493.921 260.855 500.048 273 505.833C276.236 507.374 294.177 507.5 511 507.5C736.099 507.5 745.68 507.426 750 505.667C756.376 503.069 760.55 499.624 763.573 494.465C766.018 490.294 766.184 489.22 766.083 478.249C765.961 465.04 764.132 435.275 760.446 386.5C759.074 368.35 757.319 344.595 756.546 333.71C755.389 317.429 754.759 313.134 752.992 309.484C750.503 304.342 746.357 300.547 740 297.592L735.5 295.5L513 295.311C335.417 295.161 289.692 295.379 286.5 296.393ZM311.634 577.586C294.804 581.66 281.168 594.62 275.424 612C272.737 620.129 272.95 633.561 275.905 642.313C280.648 656.363 291.527 668.116 304.886 673.623C310.249 675.834 313.495 676.431 322.051 676.778C331.342 677.156 333.444 676.915 339.653 674.755C353.531 669.929 363.211 661.397 369.527 648.424C388.177 610.118 353.339 567.492 311.634 577.586ZM686.105 577.583C677.816 579.812 671.133 583.848 663.911 590.987C643.375 611.289 644.488 644.298 666.359 663.564C683.107 678.317 708.006 680.227 726.572 668.184C753.738 650.563 757.801 613.66 735.083 590.89C724.75 580.535 713.766 575.95 699.568 576.066C695.131 576.102 689.072 576.785 686.105 577.583Z" fill="#19191B"></path>
</svg></svg></g></g><defs><clipPath id="SvgjsClipPath1442"><rect width="1000" height="1000" x="0" y="0" rx="350" ry="350"></rect></clipPath></defs></svg></g><g id="dark-icon"><svg xmlns="http://www.w3.org/2000/svg" version="1.1" xmlns:xlink="http://www.w3.org/1999/xlink" width="1000" height="1000"><g clip-path="url(#SvgjsClipPath1443)"><rect width="1000" height="1000" fill="#ffffff"></rect><g transform="matrix(0.9765625,0,0,0.9765625,0,0)"><svg xmlns="http://www.w3.org/2000/svg" version="1.1" xmlns:xlink="http://www.w3.org/1999/xlink" width="1024" height="1024"><svg width="1024" height="1024" viewBox="0 0 1024 1024" fill="none" xmlns="http://www.w3.org/2000/svg">
<path fill-rule="evenodd" clip-rule="evenodd" d="M148 503V909H497H846V503V97H497H148V503Z" fill="#19191B"></path>
<path fill-rule="evenodd" clip-rule="evenodd" d="M0 512V1024H512H1024V512V0H512H0V512ZM603 158.946C672.207 163.496 720.253 172.048 744.171 184.074C769.011 196.562 787.085 216.283 791.845 236.091C793.664 243.659 799.69 317.546 804.968 397C810.71 483.447 810.498 475.539 810.499 603.5L810.5 723.5L808.386 728.07C806.085 733.044 800.248 739.265 795.5 741.804C793.467 742.891 789.035 743.539 781.75 743.815L771 744.221V767.364C771 787.336 770.732 791.443 769.044 797.347C764.986 811.535 758.607 819.951 748.22 824.819C742.621 827.443 742.019 827.507 719.739 827.818C701.554 828.072 695.92 827.828 691.719 826.607C680.734 823.413 672.116 815.042 667.698 803.275C665.734 798.045 665.481 794.998 665.015 771L664.5 744.5H512.175H359.85L359.925 766C359.979 781.464 359.584 789.441 358.518 794.412C355.359 809.15 347.854 819.786 337 824.906C331.529 827.486 331.367 827.5 306 827.5C280.624 827.5 280.473 827.487 275 824.903C264.779 820.076 257.807 811.035 254.492 798.307C253.368 793.991 253 786.594 253 768.29V744L243.75 743.99C236.109 743.982 233.63 743.569 229.5 741.613C223.451 738.748 218.81 734.041 216.079 728C214.069 723.556 214.044 722.01 214.022 604.379C213.999 479.512 213.936 482.057 219.025 401C222.274 349.266 229.599 249.11 230.618 242.5C230.957 240.3 232.307 235.634 233.617 232.131C242.586 208.158 267.249 187.049 298.048 176.984C323.922 168.529 385.438 160.659 446 158.056C472.457 156.918 581.57 157.537 603 158.946ZM387.893 228.497C384.051 230.585 381.667 234.852 381.667 239.64C381.667 245.053 384.107 248.692 389.328 251.062C393.347 252.886 397.874 252.957 512.434 252.978C631.278 253 631.372 252.998 635.712 250.898C641.238 248.222 643.403 244.269 642.71 238.119C642.305 234.527 641.442 232.877 638.613 230.284L635.029 227L512.765 227.04C409.223 227.074 390.101 227.297 387.893 228.497ZM286.5 296.393C276.898 299.444 270.122 305.681 268.142 313.292C267.539 315.606 266.349 327.85 265.497 340.5C264.644 353.15 263.051 375.875 261.957 391C259.349 427.056 257.014 469.238 257.006 480.434C256.997 493.921 260.855 500.048 273 505.833C276.236 507.374 294.177 507.5 511 507.5C736.099 507.5 745.68 507.426 750 505.667C756.376 503.069 760.55 499.624 763.573 494.465C766.018 490.294 766.184 489.22 766.083 478.249C765.961 465.04 764.132 435.275 760.446 386.5C759.074 368.35 757.319 344.595 756.546 333.71C755.389 317.429 754.759 313.134 752.992 309.484C750.503 304.342 746.357 300.547 740 297.592L735.5 295.5L513 295.311C335.417 295.161 289.692 295.379 286.5 296.393ZM311.634 577.586C294.804 581.66 281.168 594.62 275.424 612C272.737 620.129 272.95 633.561 275.905 642.313C280.648 656.363 291.527 668.116 304.886 673.623C310.249 675.834 313.495 676.431 322.051 676.778C331.342 677.156 333.444 676.915 339.653 674.755C353.531 669.929 363.211 661.397 369.527 648.424C388.177 610.118 353.339 567.492 311.634 577.586ZM686.105 577.583C677.816 579.812 671.133 583.848 663.911 590.987C643.375 611.289 644.488 644.298 666.359 663.564C683.107 678.317 708.006 680.227 726.572 668.184C753.738 650.563 757.801 613.66 735.083 590.89C724.75 580.535 713.766 575.95 699.568 576.066C695.131 576.102 689.072 576.785 686.105 577.583Z" fill="#00FFB3"></path>
</svg></svg></g></g><defs><clipPath id="SvgjsClipPath1443"><rect width="1000" height="1000" x="0" y="0" rx="350" ry="350"></rect></clipPath></defs></svg></g></svg>